<svg width="30" height="29" viewBox="0 0 30 29" fill="none" xmlns="http://www.w3.org/2000/svg">
<path d="M4 11.336V26.2114C4 26.4789 4.10536 26.7354 4.29289 26.9246C4.48043 27.1137 4.73478 27.2199 5 27.2199H11V18.6477C11 18.2464 11.158 17.8617 11.4393 17.578C11.7206 17.2943 12.1022 17.1349 12.5 17.1349H17.5C17.8978 17.1349 18.2794 17.2943 18.5607 17.578C18.842 17.8617 19 18.2464 19 18.6477V27.2199H25C25.2652 27.2199 25.5196 27.1137 25.7071 26.9246C25.8946 26.7354 26 26.4789 26 26.2114V11.336" stroke="#4A4A4A" stroke-width="2" stroke-linecap="round" stroke-linejoin="round"/>
<path d="M24 9.25603V2.0074H21V6.35658M29 14.1095L15.6806 1.25103C15.3681 0.918219 14.6375 0.914437 14.3194 1.25103L1 14.1095H29Z" stroke="#4A4A4A" stroke-width="2" stroke-linecap="round" stroke-linejoin="round"/>
</svg>
