<svg width="40" height="52" viewBox="0 0 40 52" fill="none" xmlns="http://www.w3.org/2000/svg">
<path d="M5.26651 30.2653C8.17512 30.2653 10.533 27.9074 10.533 24.9988C10.533 22.0902 8.17512 19.7323 5.26651 19.7323C2.3579 19.7323 0 22.0902 0 24.9988C0 27.9074 2.3579 30.2653 5.26651 30.2653Z" fill="#EA4C81"/>
<path d="M9.73133 37.0315V51.2262H7.93868C3.99605 51.2262 0.80011 49.3587 0.80011 47.0545V32.8583H2.58971C6.53387 32.8583 9.73133 34.7273 9.73133 37.0315Z" fill="#EA4C81"/>
<path d="M21.1864 16.5975C20.9559 19.291 19.6534 22.4122 17.818 25.0706C16.5032 26.9747 14.9137 28.6407 13.2462 29.7416C11.9315 30.6104 10.7328 31.0166 9.73114 31.0044C12.0124 28.1322 13.6982 24.4659 13.9624 21.3662C14.2281 18.2664 13.008 16.5181 10.9726 16.4967C12.0964 15.0827 13.3638 13.8596 14.6785 12.9923C16.3444 11.8914 17.8225 11.5325 18.9494 11.8242C20.5253 12.2319 21.417 13.9039 21.1864 16.5975Z" fill="#616160"/>
<path d="M18.2839 10.7797C19.4139 9.59787 20.6217 8.57633 21.854 7.80216C23.9215 6.50424 25.7279 6.1057 27.0869 6.48896C28.9803 7.02493 29.9958 9.08481 29.6079 12.3617C29.2201 15.637 27.5129 19.4071 25.1767 22.5985C23.5016 24.8859 21.5058 26.874 19.4383 28.1719C18.2061 28.9461 17.0654 29.3996 16.0561 29.5584C19.4628 25.9929 22.1533 20.9493 22.6541 16.7257C23.155 12.5022 21.3241 10.2987 18.2839 10.7797Z" fill="#FCBD12"/>
<path d="M39.8461 7.28C38.8368 13.9956 33.1412 22.3542 27.1203 25.9548C25.6209 26.8511 24.2435 27.3672 23.0342 27.5337C27.2318 23.3483 30.6324 17.3794 31.3897 12.3358C32.1471 7.29374 30.046 4.61239 26.4011 5.11629C27.7922 3.72828 29.2718 2.53572 30.7713 1.63939C36.7937 -1.95967 40.8554 0.564401 39.8461 7.28Z" fill="#2E62AC"/>
</svg>
