<svg width="150" height="107" viewBox="0 0 150 107" fill="none" xmlns="http://www.w3.org/2000/svg">
<path d="M31.0265 73.7515V64.6274C31.0265 62.9114 30.4296 61.9349 28.7108 61.9349C27.201 61.9349 25.5868 63.0452 25.5868 65.2001V73.6177H19.55V60.0829C19.55 56.9844 20.2863 56.9844 25.5868 56.9844V59.9797C27.0617 57.8249 29.2357 56.7825 31.6583 56.7825C35.3073 56.7825 37.0632 58.7684 37.0632 62.3716V70.6531C37.0632 73.7515 36.3269 73.7515 31.0265 73.7515Z" fill="#EA4C81"/>
<path d="M47.8035 73.9534C44.2591 73.9534 40.926 72.9769 40.926 69.7446V68.0945C42.6448 68.8362 44.575 69.1039 46.3309 69.1039C48.3308 69.1039 49.5943 68.733 49.5943 67.7917C49.5943 65.3669 39.5928 67.4208 39.5928 59.3083C39.5928 54.3249 43.8038 51.5973 49.3133 51.5973C54.0516 51.5973 57.4195 53.4822 57.4195 56.6465C57.4195 58.5666 55.7704 59.8108 53.2781 59.8108H51.9101V59.1371C51.9101 57.5221 51.1738 56.2757 49.2088 56.2757C47.699 56.2757 46.6817 57.0174 46.6817 58.2286C46.6817 62.3694 56.6484 59.407 56.6484 67.0829C56.646 71.6976 52.5418 73.9534 47.8035 73.9534Z" fill="#EA4C81"/>
<path d="M59.561 79.1716V60.0829C59.561 56.9844 60.2973 56.9844 65.5977 56.9844V59.7449C66.9658 57.86 69.0028 56.7825 71.4927 56.7825C76.0545 56.7825 78.0195 60.0829 78.0195 64.6603C78.0195 69.6766 74.8607 73.9534 70.0875 73.9534C68.227 73.9534 66.6824 73.4487 65.5954 72.3383V79.1738H59.561V79.1716ZM69.2119 61.3951C67.1772 61.3951 65.7719 63.381 65.7719 66.1086C65.7719 67.5897 66.3689 69.2399 68.4036 69.2399C70.6148 69.2399 71.7738 67.0521 71.7738 64.8973C71.7738 63.0782 71.142 61.3951 69.2119 61.3951Z" fill="#EA4C81"/>
<path d="M80.5468 73.6155V60.0807C80.5468 56.9823 81.283 56.9823 86.5834 56.9823V60.2826C87.9167 57.9588 89.603 56.7804 91.3566 56.7804C92.9709 56.7804 93.3913 57.8908 93.0406 62.4024C89.0409 61.5597 86.5834 62.5033 86.5834 67.7895V73.6133H80.5468V73.6155Z" fill="#EA4C81"/>
<path d="M110.588 70.2493C110.588 73.0427 106.551 73.9534 103.323 73.9534C97.9177 73.9534 94.2339 70.822 94.2339 64.8293C94.2339 60.2496 97.6738 56.7825 103.218 56.7825C108.728 56.7825 111.675 60.0477 111.675 65.0311C111.675 66.7471 110.165 67.085 108.902 67.085H100.9C101.601 68.8361 103.146 69.7117 105.813 69.7117C107.531 69.7117 109.006 69.4418 110.586 68.9371V70.2493H110.588ZM100.482 63.7847H104.763C105.218 63.7847 105.394 63.4139 105.394 63.1462C105.394 61.6979 104.693 60.5195 103.114 60.5195C101.43 60.5195 100.621 61.597 100.482 63.7847Z" fill="#EA4C81"/>
<path d="M119.714 63.9186L123.084 63.6487V63.5477C122.945 61.1581 120.908 60.7543 118.943 60.7543C117.329 60.7543 115.854 61.2261 114.521 61.7637V60.3506C114.521 57.5901 118.732 56.7825 121.505 56.7825C125.505 56.7825 128.805 57.9609 129.226 63.517L129.823 71.5966C129.999 73.7515 127.261 73.7515 123.681 73.7515L123.542 71.4628C122.067 73.0449 120.172 73.9534 117.926 73.9534C114.521 73.9534 112.906 71.4277 112.906 68.97C112.904 66.2095 114.695 64.3245 119.714 63.9186ZM120.697 70.0803C122.206 70.0803 123.189 68.4302 123.259 66.78L120.766 67.0828C119.784 67.2167 119.294 67.8575 119.294 68.597C119.291 69.4418 119.819 70.0803 120.697 70.0803Z" fill="#EA4C81"/>
<path d="M139.471 56.7825C141.262 56.7825 142.841 57.3201 143.963 58.4656V51.933H150V70.6531C150 73.7515 149.264 73.7515 143.963 73.7515V70.89C142.523 72.843 140.419 73.9534 137.892 73.9534C133.469 73.9534 131.539 70.6531 131.539 66.0756C131.542 61.0571 134.698 56.7825 139.471 56.7825ZM140.349 69.3408C142.384 69.3408 143.789 67.3549 143.789 64.6273C143.789 63.1461 143.192 61.496 141.157 61.496C138.946 61.496 137.787 63.6838 137.787 65.8386C137.787 67.6578 138.419 69.3408 140.349 69.3408Z" fill="#EA4C81"/>
<path d="M6.6197 101.578H4.75689C2.58749 101.578 1.67002 100.725 1.67002 98.5631V85.1907H0C0 84.6312 0.0278718 84.3898 0.362341 84.3898H6.70564C11.5183 84.3898 15.4692 86.6587 15.4692 92.2917C15.4669 98.2428 11.3766 101.578 6.6197 101.578ZM2.50387 85.1907V98.5105C2.50387 100.06 3.14261 100.779 4.81264 100.779H6.59415C10.8517 100.779 14.5773 97.8434 14.5773 92.2917C14.5773 87.1393 10.9608 85.1907 6.59415 85.1907H2.50387Z" fill="#616160"/>
<path d="M19.8356 85.2698C19.306 85.2698 19.0552 84.9757 19.0552 84.4952C19.0552 84.0409 19.306 83.7491 19.8356 83.7491C20.335 83.7491 20.5858 84.0431 20.5858 84.4952C20.5858 84.9757 20.335 85.2698 19.8356 85.2698ZM19.3896 101.578V89.3798C19.3896 88.9519 19.5011 88.9256 20.1956 88.9256V101.578H19.3896Z" fill="#616160"/>
<path d="M31.1845 88.5788C31.1845 88.8992 31.296 89.1383 31.5468 89.3797C32.743 90.0731 33.4654 91.2493 33.4654 92.7437C33.4654 95.1728 31.3517 96.7747 28.7643 96.7747H28.7364C26.4834 96.8274 25.3429 97.3628 25.3429 98.3239C25.3429 99.2039 26.1233 99.7919 27.7353 99.7919H30.0441C32.4086 99.7919 34.4386 100.352 34.4386 102.487C34.4386 105.155 31.3239 106.25 28.4298 106.25C25.7029 106.25 23.3105 105.289 23.3105 103.046C23.3105 101.631 24.3674 100.67 25.9538 100.244C25.0921 99.9236 24.5904 99.3092 24.5904 98.4293C24.5904 97.3869 25.4242 96.7747 26.8434 96.4807C25.2012 95.9211 24.0608 94.6133 24.0608 92.7437C24.0608 90.2355 25.9793 88.6863 28.7619 88.6863C29.4843 88.6863 30.1532 88.8202 30.7362 89.0067C30.6526 88.8465 30.6247 88.6336 30.6247 88.4186C30.6247 86.47 32.8778 85.7502 34.5756 85.7502C34.9101 85.7502 34.9659 85.9631 34.9659 86.5512C33.1867 86.4985 31.1845 87.1919 31.1845 88.5788ZM27.7074 100.485C25.4544 100.538 24.1188 101.58 24.1188 102.967C24.1188 104.808 26.1489 105.609 28.4855 105.609C31.073 105.609 33.6048 104.701 33.6048 102.566C33.6048 100.911 31.879 100.483 29.9047 100.483H27.7074V100.485ZM28.7643 89.4061C26.3997 89.4061 24.8691 90.6875 24.8691 92.77C24.8691 94.8788 26.5647 96.1339 28.7643 96.1339C30.9638 96.1339 32.6873 94.7471 32.6873 92.77C32.6873 90.8214 31.1566 89.4061 28.7643 89.4061Z" fill="#616160"/>
<path d="M38.1389 85.2698C37.6094 85.2698 37.3608 84.9757 37.3608 84.4952C37.3608 84.0409 37.6117 83.7491 38.1389 83.7491C38.6406 83.7491 38.8892 84.0431 38.8892 84.4952C38.8892 84.9757 38.6406 85.2698 38.1389 85.2698ZM37.6953 101.578V89.3798C37.6953 88.9519 37.8068 88.9256 38.5013 88.9256V101.578H37.6953Z" fill="#616160"/>
<path d="M44.5933 89.7003V96.5598C44.5933 99.3094 45.1763 101.098 47.8474 101.098C48.7927 101.098 49.7102 100.885 50.5185 100.457V100.777C50.5185 101.444 48.8764 101.846 47.6244 101.846C44.7303 101.846 43.785 100.031 43.785 96.7222V89.7025L41.8665 89.4348C41.8665 89.3009 41.9222 89.0617 42.0337 88.9542H43.7873V86.231C43.7873 85.8316 43.8988 85.8031 44.5933 85.8031V88.952H50.1004C50.4349 88.952 50.4628 89.1649 50.4628 89.7003H44.5933Z" fill="#616160"/>
<path d="M57.4727 94.6924L61.7837 94.2119L61.7 92.9304C61.5049 90.3147 59.7536 89.4347 57.6655 89.4347C56.2463 89.4347 55.078 89.7814 53.9654 90.3432V90.0492C53.9654 89.4347 56.0512 88.6887 57.9164 88.6887C60.1136 88.6887 62.283 89.5686 62.506 92.825L63.089 101.179C63.1169 101.578 62.9496 101.605 62.283 101.605L61.9486 96.9329C61.0868 100.055 59.1102 101.844 56.5227 101.844C54.1304 101.844 52.8784 100.189 52.8784 98.2934C52.8831 96.2395 54.358 95.0655 57.4727 94.6924ZM56.7504 101.179C59.3936 101.179 61.5072 98.6708 61.786 94.8526L57.5865 95.3595C54.999 95.6535 53.8028 96.6147 53.8028 98.2692C53.8005 99.8974 54.8295 101.179 56.7504 101.179Z" fill="#616160"/>
<path d="M67.2656 101.578V83.8544C67.2656 83.4528 67.3771 83.4265 68.0716 83.4265V101.576H67.2656V101.578Z" fill="#616160"/>
<path d="M8.57557 43.4935C12.9999 43.4935 16.5866 40.105 16.5866 35.9252C16.5866 31.7453 12.9999 28.3568 8.57557 28.3568C4.15122 28.3568 0.564575 31.7453 0.564575 35.9252C0.564575 40.105 4.15122 43.4935 8.57557 43.4935Z" fill="#EA4C81"/>
<path d="M15.3671 53.2167V73.6155H12.6402C6.64303 73.6155 1.78162 70.9318 1.78162 67.6205V47.2195H4.50382C10.5034 47.2195 15.3671 49.9054 15.3671 53.2167Z" fill="#EA4C81"/>
<path d="M32.7917 23.852C32.441 27.7228 30.4597 32.2081 27.6678 36.0285C25.668 38.7648 23.2501 41.1589 20.7137 42.741C18.7138 43.9896 16.8905 44.5733 15.3668 44.5557C18.8369 40.4281 21.4012 35.1595 21.803 30.7049C22.2072 26.2504 20.3513 23.7379 17.2552 23.7071C18.9647 21.6752 20.8925 19.9175 22.8924 18.6711C25.4264 17.0889 27.6748 16.5733 29.389 16.9924C31.786 17.5783 33.1424 19.9811 32.7917 23.852Z" fill="#616160"/>
<path d="M28.3766 15.4913C30.0954 13.7929 31.9327 12.3248 33.8071 11.2123C36.952 9.34709 39.6998 8.77436 41.767 9.32515C44.6471 10.0954 46.1917 13.0556 45.6018 17.7646C45.0118 22.4715 42.415 27.8894 38.8613 32.4756C36.3133 35.7628 33.2775 38.6198 30.1326 40.485C28.2582 41.5976 26.5231 42.2493 24.9878 42.4775C30.1697 37.3537 34.2623 30.1057 35.0242 24.0361C35.786 17.9665 33.0011 14.8001 28.3766 15.4913Z" fill="#FCBD12"/>
<path d="M61.1754 10.4619C59.64 20.1127 50.9764 32.1246 41.818 37.2989C39.5371 38.587 37.442 39.3287 35.6024 39.5678C41.9875 33.5531 47.1602 24.9754 48.3122 17.7274C49.4643 10.4816 46.2683 6.62833 40.724 7.35247C42.8399 5.3578 45.0906 3.64401 47.3715 2.35592C56.5323 -2.81618 62.7107 0.811084 61.1754 10.4619Z" fill="#2E62AC"/>
</svg>
