<svg width="30" height="31" viewBox="0 0 30 31"  xmlns="http://www.w3.org/2000/svg">
<path d="M8.63108 0H21.3689C23.7392 0 25.8957 0.972654 27.4603 2.5348C29.0273 4.09939 30 6.25839 30 8.63108V21.5531C30 23.9209 29.0273 26.0775 27.4652 27.6421L27.4603 27.647C25.8932 29.2116 23.7367 30.1818 21.3714 30.1818H8.63108C6.25839 30.1818 4.09939 29.2091 2.5348 27.647L2.47585 27.5806C0.948092 26.0234 0 23.8914 0 21.5507V8.63108C0 6.25594 0.970198 4.09939 2.5348 2.5348C4.09939 0.970198 6.25594 0 8.63108 0ZM22.4767 7.61913L22.4939 7.64614H27.7992C27.5856 6.25102 26.9199 4.99836 25.962 4.03799C24.783 2.85901 23.157 2.12707 21.3689 2.12707H19.1903L22.4767 7.61913ZM20.0229 7.64614L16.7193 2.12707H9.47356L12.8164 7.64614H20.0229ZM10.343 7.64614L7.11069 2.30637C5.92926 2.59129 4.87064 3.20288 4.03799 4.03799C3.08007 4.99591 2.4169 6.25102 2.20075 7.64614H10.343ZM27.8729 9.77321H2.12707V21.5531C2.12707 23.3142 2.83691 24.9181 3.98395 26.0922L4.03799 26.1438C5.21696 27.3227 6.84542 28.0571 8.63108 28.0571H21.3689C23.157 28.0571 24.783 27.3252 25.9596 26.1487L25.9645 26.1438C27.141 24.9673 27.8729 23.3412 27.8729 21.5531V9.77321ZM12.5143 13.4968L19.1043 17.7829C19.2099 17.8516 19.3057 17.9401 19.3819 18.0481C19.6815 18.4829 19.571 19.0797 19.1362 19.3794L12.5733 23.2528C12.4087 23.3879 12.1975 23.469 11.9641 23.469C11.4336 23.469 11.0038 23.0391 11.0038 22.5086V14.2828H11.0087C11.0087 14.0937 11.0652 13.9021 11.1806 13.7351C11.4852 13.3003 12.082 13.1947 12.5143 13.4968Z" />
</svg>
